<mxfile host="app.diagrams.net" modified="2023-06-30T06:30:33.849Z" agent="Mozilla/5.0 (Macintosh; Intel Mac OS X 10_15_7) AppleWebKit/537.36 (KHTML, like Gecko) Chrome/114.0.0.0 Safari/537.36" etag="muF5v38UZN6adI67Mcwo" version="21.5.2" type="github">
  <diagram name="第 1 页" id="VWPbVaGyWXcX7U-H5dxE">
    <mxGraphModel dx="1912" dy="1061" grid="1" gridSize="10" guides="1" tooltips="1" connect="1" arrows="1" fold="1" page="1" pageScale="1" pageWidth="827" pageHeight="1169" math="0" shadow="0">
      <root>
        <mxCell id="0" />
        <mxCell id="1" parent="0" />
        <mxCell id="vvC79_eZZluVpK0fMWGm-1" value="" style="rounded=1;whiteSpace=wrap;html=1;" parent="1" vertex="1">
          <mxGeometry x="100" y="330" width="150" height="60" as="geometry" />
        </mxCell>
        <mxCell id="vvC79_eZZluVpK0fMWGm-2" value="" style="rounded=1;whiteSpace=wrap;html=1;" parent="1" vertex="1">
          <mxGeometry x="480" y="330" width="120" height="60" as="geometry" />
        </mxCell>
        <mxCell id="vvC79_eZZluVpK0fMWGm-3" value="" style="rounded=1;whiteSpace=wrap;html=1;" parent="1" vertex="1">
          <mxGeometry x="820" y="330" width="120" height="60" as="geometry" />
        </mxCell>
        <mxCell id="vvC79_eZZluVpK0fMWGm-4" value="" style="rounded=1;whiteSpace=wrap;html=1;" parent="1" vertex="1">
          <mxGeometry x="1160" y="330" width="150" height="60" as="geometry" />
        </mxCell>
        <mxCell id="vvC79_eZZluVpK0fMWGm-13" value="&lt;b&gt;&lt;font style=&quot;font-size: 18px;&quot;&gt;TinkerGraphStep&lt;/font&gt;&lt;/b&gt;" style="rounded=1;whiteSpace=wrap;html=1;strokeWidth=2;fillWeight=4;hachureGap=8;hachureAngle=45;fillColor=#1ba1e2;sketch=1;" parent="1" vertex="1">
          <mxGeometry x="100" y="330" width="150" height="60" as="geometry" />
        </mxCell>
        <mxCell id="vvC79_eZZluVpK0fMWGm-14" value="&lt;b&gt;&lt;font style=&quot;font-size: 18px;&quot;&gt;VertexStep&lt;/font&gt;&lt;/b&gt;" style="rounded=1;whiteSpace=wrap;html=1;strokeWidth=2;fillWeight=4;hachureGap=8;hachureAngle=45;fillColor=#1ba1e2;sketch=1;" parent="1" vertex="1">
          <mxGeometry x="480" y="330" width="120" height="60" as="geometry" />
        </mxCell>
        <mxCell id="vvC79_eZZluVpK0fMWGm-15" value="&lt;b&gt;&lt;font style=&quot;font-size: 18px;&quot;&gt;PropertiesStep&lt;/font&gt;&lt;/b&gt;" style="rounded=1;whiteSpace=wrap;html=1;strokeWidth=2;fillWeight=4;hachureGap=8;hachureAngle=45;fillColor=#1ba1e2;sketch=1;" parent="1" vertex="1">
          <mxGeometry x="820" y="330" width="120" height="60" as="geometry" />
        </mxCell>
        <mxCell id="vvC79_eZZluVpK0fMWGm-16" value="&lt;b&gt;&lt;font style=&quot;font-size: 18px;&quot;&gt;RangGloabalStep&lt;/font&gt;&lt;/b&gt;" style="rounded=1;whiteSpace=wrap;html=1;strokeWidth=2;fillWeight=4;hachureGap=8;hachureAngle=45;fillColor=#1ba1e2;sketch=1;" parent="1" vertex="1">
          <mxGeometry x="1160" y="330" width="150" height="60" as="geometry" />
        </mxCell>
        <mxCell id="vvC79_eZZluVpK0fMWGm-18" value="&lt;b&gt;this.hostStep.getPreviousStep().hasnext()&lt;/b&gt;" style="text;html=1;strokeColor=none;fillColor=none;align=center;verticalAlign=middle;whiteSpace=wrap;rounded=0;" parent="1" vertex="1">
          <mxGeometry x="1022" y="290" width="60" height="30" as="geometry" />
        </mxCell>
        <mxCell id="vvC79_eZZluVpK0fMWGm-25" value="" style="endArrow=classic;html=1;rounded=0;" parent="1" edge="1">
          <mxGeometry width="50" height="50" relative="1" as="geometry">
            <mxPoint x="600" y="379" as="sourcePoint" />
            <mxPoint x="820" y="380" as="targetPoint" />
          </mxGeometry>
        </mxCell>
        <mxCell id="vvC79_eZZluVpK0fMWGm-26" value="" style="endArrow=classic;html=1;rounded=0;entryX=0;entryY=0.75;entryDx=0;entryDy=0;exitX=1;exitY=0.75;exitDx=0;exitDy=0;" parent="1" source="vvC79_eZZluVpK0fMWGm-1" target="vvC79_eZZluVpK0fMWGm-2" edge="1">
          <mxGeometry width="50" height="50" relative="1" as="geometry">
            <mxPoint x="260" y="382" as="sourcePoint" />
            <mxPoint x="370" y="381" as="targetPoint" />
          </mxGeometry>
        </mxCell>
        <mxCell id="vvC79_eZZluVpK0fMWGm-27" value="" style="endArrow=classic;html=1;rounded=0;" parent="1" edge="1">
          <mxGeometry width="50" height="50" relative="1" as="geometry">
            <mxPoint x="1160" y="340" as="sourcePoint" />
            <mxPoint x="940" y="340" as="targetPoint" />
          </mxGeometry>
        </mxCell>
        <mxCell id="vvC79_eZZluVpK0fMWGm-28" value="" style="endArrow=classic;html=1;rounded=0;" parent="1" edge="1">
          <mxGeometry width="50" height="50" relative="1" as="geometry">
            <mxPoint x="940" y="380" as="sourcePoint" />
            <mxPoint x="1160" y="381" as="targetPoint" />
          </mxGeometry>
        </mxCell>
        <mxCell id="vvC79_eZZluVpK0fMWGm-29" value="" style="endArrow=classic;html=1;rounded=0;" parent="1" edge="1">
          <mxGeometry width="50" height="50" relative="1" as="geometry">
            <mxPoint x="820" y="340" as="sourcePoint" />
            <mxPoint x="600" y="340" as="targetPoint" />
          </mxGeometry>
        </mxCell>
        <mxCell id="vvC79_eZZluVpK0fMWGm-30" value="" style="endArrow=classic;html=1;rounded=0;exitX=0.008;exitY=0.15;exitDx=0;exitDy=0;exitPerimeter=0;" parent="1" source="vvC79_eZZluVpK0fMWGm-2" edge="1">
          <mxGeometry width="50" height="50" relative="1" as="geometry">
            <mxPoint x="440" y="340" as="sourcePoint" />
            <mxPoint x="250" y="340" as="targetPoint" />
          </mxGeometry>
        </mxCell>
        <mxCell id="vvC79_eZZluVpK0fMWGm-32" value="&lt;b&gt;this.hostStep.getPreviousStep().hasnext()&lt;/b&gt;" style="text;html=1;strokeColor=none;fillColor=none;align=center;verticalAlign=middle;whiteSpace=wrap;rounded=0;" parent="1" vertex="1">
          <mxGeometry x="680" y="290" width="60" height="30" as="geometry" />
        </mxCell>
        <mxCell id="vvC79_eZZluVpK0fMWGm-33" value="&lt;b&gt;this.hostStep.getPreviousStep().hasnext()&lt;/b&gt;" style="text;html=1;strokeColor=none;fillColor=none;align=center;verticalAlign=middle;whiteSpace=wrap;rounded=0;" parent="1" vertex="1">
          <mxGeometry x="340" y="290" width="60" height="30" as="geometry" />
        </mxCell>
        <mxCell id="vvC79_eZZluVpK0fMWGm-35" value="&lt;b&gt;Traverser:next()&lt;/b&gt;" style="text;html=1;strokeColor=none;fillColor=none;align=center;verticalAlign=middle;whiteSpace=wrap;rounded=0;" parent="1" vertex="1">
          <mxGeometry x="330" y="380" width="60" height="30" as="geometry" />
        </mxCell>
        <mxCell id="vvC79_eZZluVpK0fMWGm-39" value="&lt;b&gt;Traverser:next()&lt;/b&gt;" style="text;html=1;strokeColor=none;fillColor=none;align=center;verticalAlign=middle;whiteSpace=wrap;rounded=0;" parent="1" vertex="1">
          <mxGeometry x="700" y="380" width="60" height="30" as="geometry" />
        </mxCell>
        <mxCell id="vvC79_eZZluVpK0fMWGm-40" value="&lt;b&gt;Traverser:next()&lt;/b&gt;" style="text;html=1;strokeColor=none;fillColor=none;align=center;verticalAlign=middle;whiteSpace=wrap;rounded=0;" parent="1" vertex="1">
          <mxGeometry x="1040" y="380" width="60" height="30" as="geometry" />
        </mxCell>
        <mxCell id="P20dOcc2aDEP2rDkj0yO-1" value="" style="rounded=1;whiteSpace=wrap;html=1;" vertex="1" parent="1">
          <mxGeometry x="100" y="567" width="150" height="60" as="geometry" />
        </mxCell>
        <mxCell id="P20dOcc2aDEP2rDkj0yO-2" value="" style="rounded=1;whiteSpace=wrap;html=1;" vertex="1" parent="1">
          <mxGeometry x="480" y="567" width="120" height="60" as="geometry" />
        </mxCell>
        <mxCell id="P20dOcc2aDEP2rDkj0yO-3" value="" style="rounded=1;whiteSpace=wrap;html=1;" vertex="1" parent="1">
          <mxGeometry x="820" y="567" width="120" height="60" as="geometry" />
        </mxCell>
        <mxCell id="P20dOcc2aDEP2rDkj0yO-4" value="" style="rounded=1;whiteSpace=wrap;html=1;" vertex="1" parent="1">
          <mxGeometry x="1160" y="567" width="150" height="60" as="geometry" />
        </mxCell>
        <mxCell id="P20dOcc2aDEP2rDkj0yO-5" value="&lt;b&gt;&lt;font style=&quot;font-size: 18px;&quot;&gt;TinkerGraphStep&lt;/font&gt;&lt;/b&gt;" style="rounded=1;whiteSpace=wrap;html=1;strokeWidth=2;fillWeight=4;hachureGap=8;hachureAngle=45;fillColor=#1ba1e2;sketch=1;" vertex="1" parent="1">
          <mxGeometry x="100" y="567" width="150" height="60" as="geometry" />
        </mxCell>
        <mxCell id="P20dOcc2aDEP2rDkj0yO-6" value="&lt;b&gt;&lt;font style=&quot;font-size: 18px;&quot;&gt;VertexStep&lt;/font&gt;&lt;/b&gt;" style="rounded=1;whiteSpace=wrap;html=1;strokeWidth=2;fillWeight=4;hachureGap=8;hachureAngle=45;fillColor=#1ba1e2;sketch=1;" vertex="1" parent="1">
          <mxGeometry x="480" y="567" width="120" height="60" as="geometry" />
        </mxCell>
        <mxCell id="P20dOcc2aDEP2rDkj0yO-7" value="&lt;b&gt;&lt;font style=&quot;font-size: 18px;&quot;&gt;PropertiesStep&lt;/font&gt;&lt;/b&gt;" style="rounded=1;whiteSpace=wrap;html=1;strokeWidth=2;fillWeight=4;hachureGap=8;hachureAngle=45;fillColor=#1ba1e2;sketch=1;" vertex="1" parent="1">
          <mxGeometry x="1160" y="567" width="150" height="63" as="geometry" />
        </mxCell>
        <mxCell id="P20dOcc2aDEP2rDkj0yO-8" value="&lt;b&gt;&lt;font style=&quot;font-size: 18px;&quot;&gt;RangGloabalStep&lt;/font&gt;&lt;/b&gt;" style="rounded=1;whiteSpace=wrap;html=1;strokeWidth=2;fillWeight=4;hachureGap=8;hachureAngle=45;fillColor=#1ba1e2;sketch=1;" vertex="1" parent="1">
          <mxGeometry x="1530" y="568.5" width="150" height="60" as="geometry" />
        </mxCell>
        <mxCell id="P20dOcc2aDEP2rDkj0yO-9" value="&lt;b&gt;this.hostStep.getPreviousStep().hasnext()&lt;/b&gt;" style="text;html=1;strokeColor=none;fillColor=none;align=center;verticalAlign=middle;whiteSpace=wrap;rounded=0;" vertex="1" parent="1">
          <mxGeometry x="1022" y="527" width="60" height="30" as="geometry" />
        </mxCell>
        <mxCell id="P20dOcc2aDEP2rDkj0yO-10" value="" style="endArrow=classic;html=1;rounded=0;" edge="1" parent="1">
          <mxGeometry width="50" height="50" relative="1" as="geometry">
            <mxPoint x="600" y="616" as="sourcePoint" />
            <mxPoint x="820" y="617" as="targetPoint" />
          </mxGeometry>
        </mxCell>
        <mxCell id="P20dOcc2aDEP2rDkj0yO-11" value="" style="endArrow=classic;html=1;rounded=0;entryX=0;entryY=0.75;entryDx=0;entryDy=0;exitX=1;exitY=0.75;exitDx=0;exitDy=0;" edge="1" parent="1" source="P20dOcc2aDEP2rDkj0yO-1" target="P20dOcc2aDEP2rDkj0yO-2">
          <mxGeometry width="50" height="50" relative="1" as="geometry">
            <mxPoint x="260" y="619" as="sourcePoint" />
            <mxPoint x="370" y="618" as="targetPoint" />
          </mxGeometry>
        </mxCell>
        <mxCell id="P20dOcc2aDEP2rDkj0yO-12" value="" style="endArrow=classic;html=1;rounded=0;" edge="1" parent="1">
          <mxGeometry width="50" height="50" relative="1" as="geometry">
            <mxPoint x="1160" y="577" as="sourcePoint" />
            <mxPoint x="940" y="577" as="targetPoint" />
          </mxGeometry>
        </mxCell>
        <mxCell id="P20dOcc2aDEP2rDkj0yO-13" value="" style="endArrow=classic;html=1;rounded=0;" edge="1" parent="1">
          <mxGeometry width="50" height="50" relative="1" as="geometry">
            <mxPoint x="940" y="617" as="sourcePoint" />
            <mxPoint x="1160" y="618" as="targetPoint" />
          </mxGeometry>
        </mxCell>
        <mxCell id="P20dOcc2aDEP2rDkj0yO-14" value="" style="endArrow=classic;html=1;rounded=0;" edge="1" parent="1">
          <mxGeometry width="50" height="50" relative="1" as="geometry">
            <mxPoint x="820" y="577" as="sourcePoint" />
            <mxPoint x="600" y="577" as="targetPoint" />
          </mxGeometry>
        </mxCell>
        <mxCell id="P20dOcc2aDEP2rDkj0yO-15" value="" style="endArrow=classic;html=1;rounded=0;exitX=0.008;exitY=0.15;exitDx=0;exitDy=0;exitPerimeter=0;" edge="1" parent="1" source="P20dOcc2aDEP2rDkj0yO-2">
          <mxGeometry width="50" height="50" relative="1" as="geometry">
            <mxPoint x="440" y="577" as="sourcePoint" />
            <mxPoint x="250" y="577" as="targetPoint" />
          </mxGeometry>
        </mxCell>
        <mxCell id="P20dOcc2aDEP2rDkj0yO-16" value="&lt;b&gt;this.hostStep.getPreviousStep().hasnext()&lt;/b&gt;" style="text;html=1;strokeColor=none;fillColor=none;align=center;verticalAlign=middle;whiteSpace=wrap;rounded=0;" vertex="1" parent="1">
          <mxGeometry x="680" y="527" width="60" height="30" as="geometry" />
        </mxCell>
        <mxCell id="P20dOcc2aDEP2rDkj0yO-17" value="&lt;b&gt;this.hostStep.getPreviousStep().hasnext()&lt;/b&gt;" style="text;html=1;strokeColor=none;fillColor=none;align=center;verticalAlign=middle;whiteSpace=wrap;rounded=0;" vertex="1" parent="1">
          <mxGeometry x="340" y="527" width="60" height="30" as="geometry" />
        </mxCell>
        <mxCell id="P20dOcc2aDEP2rDkj0yO-18" value="&lt;b&gt;Traverser:next()&lt;/b&gt;" style="text;html=1;strokeColor=none;fillColor=none;align=center;verticalAlign=middle;whiteSpace=wrap;rounded=0;" vertex="1" parent="1">
          <mxGeometry x="330" y="617" width="60" height="30" as="geometry" />
        </mxCell>
        <mxCell id="P20dOcc2aDEP2rDkj0yO-19" value="&lt;b&gt;Traverser:next()&lt;/b&gt;" style="text;html=1;strokeColor=none;fillColor=none;align=center;verticalAlign=middle;whiteSpace=wrap;rounded=0;" vertex="1" parent="1">
          <mxGeometry x="700" y="617" width="60" height="30" as="geometry" />
        </mxCell>
        <mxCell id="P20dOcc2aDEP2rDkj0yO-20" value="&lt;b&gt;Traverser:next()&lt;/b&gt;" style="text;html=1;strokeColor=none;fillColor=none;align=center;verticalAlign=middle;whiteSpace=wrap;rounded=0;" vertex="1" parent="1">
          <mxGeometry x="1040" y="617" width="60" height="30" as="geometry" />
        </mxCell>
        <mxCell id="P20dOcc2aDEP2rDkj0yO-22" value="" style="endArrow=classic;html=1;rounded=0;" edge="1" parent="1">
          <mxGeometry width="50" height="50" relative="1" as="geometry">
            <mxPoint x="1530" y="580" as="sourcePoint" />
            <mxPoint x="1310" y="580" as="targetPoint" />
          </mxGeometry>
        </mxCell>
        <mxCell id="P20dOcc2aDEP2rDkj0yO-23" value="" style="endArrow=classic;html=1;rounded=0;" edge="1" parent="1">
          <mxGeometry width="50" height="50" relative="1" as="geometry">
            <mxPoint x="1310" y="616" as="sourcePoint" />
            <mxPoint x="1530" y="617" as="targetPoint" />
          </mxGeometry>
        </mxCell>
        <mxCell id="P20dOcc2aDEP2rDkj0yO-24" value="&lt;b&gt;this.hostStep.getPreviousStep().hasnext()&lt;/b&gt;" style="text;html=1;strokeColor=none;fillColor=none;align=center;verticalAlign=middle;whiteSpace=wrap;rounded=0;" vertex="1" parent="1">
          <mxGeometry x="1390" y="537" width="60" height="30" as="geometry" />
        </mxCell>
        <mxCell id="P20dOcc2aDEP2rDkj0yO-25" value="&lt;b&gt;Traverser:next()&lt;/b&gt;" style="text;html=1;strokeColor=none;fillColor=none;align=center;verticalAlign=middle;whiteSpace=wrap;rounded=0;" vertex="1" parent="1">
          <mxGeometry x="1400" y="627" width="60" height="30" as="geometry" />
        </mxCell>
        <mxCell id="P20dOcc2aDEP2rDkj0yO-26" value="&lt;b&gt;&lt;font style=&quot;font-size: 18px;&quot;&gt;VertexStep&lt;/font&gt;&lt;/b&gt;" style="rounded=1;whiteSpace=wrap;html=1;strokeWidth=2;fillWeight=4;hachureGap=8;hachureAngle=45;fillColor=#1ba1e2;sketch=1;" vertex="1" parent="1">
          <mxGeometry x="820" y="570" width="120" height="60" as="geometry" />
        </mxCell>
      </root>
    </mxGraphModel>
  </diagram>
</mxfile>
